<svg id="レイヤー_1" data-name="レイヤー 1" xmlns="http://www.w3.org/2000/svg" viewBox="0 0 253.8 108.9"><defs><style>.cls-1{fill:#219fd6;}.cls-2{fill:#4c4b4c;}.cls-3{fill:#d2d2d2;}.cls-4{fill:#f4de25;}.cls-5{fill:#16963b;}.cls-6{fill:#6da14d;}</style></defs><rect class="cls-1" x="0.2" y="1.9" width="23.5" height="80"/><path class="cls-2" d="M83.4,12.3H98.1V62.4H127V74H83.4Z" transform="translate(-8 -9.7)"/><path class="cls-2" d="M128.3,75.3H82V11H99.4V61.1h28.9ZM84.8,72.6h40.8V63.8H96.7V13.7H84.8Z" transform="translate(-8 -9.7)"/><path class="cls-2" d="M137.3,12.3h19.3L164.4,38c.8,2.8,1.2,3.7,1.9,6.5.4,1.3,1.7,6.6,2,7.7h.4a144.22,144.22,0,0,1,3.6-14.4L180,12.4h19.4V74H186.8V40.8c0-4.4.4-11.7.6-17.5H187L173.4,74h-9.9l-14-50.7h-.4c.1,2.9.6,15.4.6,18V74H137.3V12.3Z" transform="translate(-8 -9.7)"/><path class="cls-2" d="M200.8,75.3H185.4V40.8c0-1.8.1-4.1.2-6.6l-11,41.1H162.5l-11.6-42c.1,3.5.2,6.7.2,8V75.4H135.9V11h21.8l8.1,26.7c.3,1,.5,1.8.7,2.4.4,1.2.7,2.3,1.2,4.1.1.5.4,1.6.7,2.9.7-2.9,1.5-5.9,2.6-9.6l8-26.4h21.8Zm-12.7-2.7h9.8V13.7h-17l-7.4,24.5A128,128,0,0,0,170,52.5l-.2,1.1h-2.7l-.3-1c-.3-1.3-1.6-6.5-2-7.7-.5-1.8-.8-2.8-1.1-4-.2-.7-.4-1.5-.7-2.5l-7.5-24.7H138.6V72.6h9.7V41.2c0-1.8-.3-8.3-.4-13-.1-2.2-.2-4-.2-4.9V21.9h2.9l14,50.7h7.8L186,21.9h2.9l-.1,3.1c-.3,5.5-.5,11.8-.5,15.8V72.6Z" transform="translate(-8 -9.7)"/><path class="cls-2" d="M247.7,28.8c-2.3-3.7-8.5-6.8-14.2-6.8-8.5,0-8.7,5.3-8.7,5.9,0,4.3,4.8,6.1,9.4,7.4l9.4,2.8c4.4,1.3,9.7,3.8,12.6,7.2a16.75,16.75,0,0,1,4.1,10.8c0,2.7,0,10.9-10.5,16.2-4.3,2.2-10.5,3.1-14.2,3.1-13,0-20.7-2.6-27.4-12.4l11.2-6.9c2.7,5.2,9.1,8.3,15.4,8.3,3.5,0,9.9-1.3,9.9-6.9,0-4.6-3-5.6-14.1-9.2s-20.9-7.7-20.9-19.8c0-10.1,8.9-17.3,24.1-17.3,10.9,0,18.6,3.7,24.6,11Z" transform="translate(-8 -9.7)"/><path class="cls-2" d="M235.6,76.6c-12.5,0-21.1-2.1-28.5-13l-.8-1.2L220,54l.7,1.3c2.4,4.6,8.1,7.6,14.2,7.6.9,0,8.5-.2,8.5-5.6,0-3.4-1.7-4.2-13.2-7.9s-21.9-8.1-21.9-21c0-11.4,10-18.7,25.5-18.7,11.1,0,19.2,3.7,25.7,11.5l1,1.2-13.3,8.2-.7-1.2c-2.2-3.4-8-6.2-13-6.2-6.9,0-7.3,3.8-7.3,4.6,0,3,3.2,4.6,8.4,6.1l9.4,2.8c5.6,1.7,10.6,4.5,13.3,7.6a17.88,17.88,0,0,1,4.5,11.6c0,2.9,0,11.7-11.3,17.4C246,75.6,239.6,76.6,235.6,76.6ZM210.2,63.3c5.8,8,12.4,10.7,25.4,10.7,3.7,0,9.6-.9,13.6-2.9,9.7-4.9,9.7-12.2,9.7-15a15.75,15.75,0,0,0-3.8-9.9c-2.4-2.7-6.9-5.2-12-6.8l-9.4-2.8c-3.9-1.1-10.4-3-10.4-8.7,0-.7.3-7.3,10.1-7.3,5.4,0,11.5,2.7,14.6,6.4l8.4-5.2c-5.8-6.4-13-9.3-22.6-9.3-13.8,0-22.7,6.3-22.7,16,0,11.2,9,15,20,18.5,11.3,3.6,15.1,4.9,15.1,10.5s-5.7,8.3-11.3,8.3c-6.5,0-12.7-3.1-15.9-7.8Z" transform="translate(-8 -9.7)"/><polygon class="cls-3" points="248.2 82.8 73.5 82.8 73.5 74.7 252.3 74.7 248.2 82.8"/><rect class="cls-4" x="23.2" y="67" width="37.4" height="15.7"/><rect class="cls-4" x="23.2" y="1.9" width="37.4" height="15.7"/><rect class="cls-4" x="23.2" y="34.4" width="35.5" height="15.7"/><rect class="cls-5" x="0.2" y="1.9" width="23.5" height="15.7"/><rect class="cls-5" x="0.2" y="34.4" width="23.5" height="15.7"/><rect class="cls-5" x="0.2" y="67" width="23.5" height="15.7"/><path class="cls-6" d="M10.5,109.6h4.6v-6.5h2.5v15.2H15.1v-6.8H10.5v6.8H8V103.1h2.5Z" transform="translate(-8 -9.7)"/><path class="cls-6" d="M31.7,104.3a3.47,3.47,0,0,1,1.3,2.9v7.4a3.8,3.8,0,0,1-1.3,3,5.22,5.22,0,0,1-3.5,1,5.4,5.4,0,0,1-3.5-1,3.54,3.54,0,0,1-1.3-3v-7.4a3.8,3.8,0,0,1,1.3-3,5.22,5.22,0,0,1,3.5-1A5.42,5.42,0,0,1,31.7,104.3ZM26,114.8a2,2,0,0,0,.5,1.4,3,3,0,0,0,1.8.5,3,3,0,0,0,1.8-.5,1.62,1.62,0,0,0,.5-1.4V107a2,2,0,0,0-.5-1.4,3,3,0,0,0-1.8-.5,2.86,2.86,0,0,0-1.7.5A1.68,1.68,0,0,0,26,107Z" transform="translate(-8 -9.7)"/><path class="cls-6" d="M41.3,108.5l4.1-5.3h2.8l-4.4,5.7,4.9,9.4H46l-3.8-7.4-.9,1v6.4H38.8V103.1h2.5Z" transform="translate(-8 -9.7)"/><path class="cls-6" d="M57.1,108.5l4.1-5.3H64l-4.4,5.7,4.9,9.4H61.8L58,110.9l-.9,1v6.4H54.6V103.1h2.5Z" transform="translate(-8 -9.7)"/><path class="cls-6" d="M78.6,118.3H75.9l-.8-3.3H71.5l-.8,3.3H68l3.8-15.2h2.8ZM72,113.1h2.7l-1.3-5.7Z" transform="translate(-8 -9.7)"/><path class="cls-6" d="M86.3,118.3H83.8V103.1h2.5Z" transform="translate(-8 -9.7)"/><path class="cls-6" d="M100.6,104.6a4.13,4.13,0,0,1,1.5,3.3v5.2a4.76,4.76,0,0,1-1.5,3.8,7.42,7.42,0,0,1-4.8,1.4H92.5V103.1h4.1A6.75,6.75,0,0,1,100.6,104.6ZM95,116.4h1.3a3.29,3.29,0,0,0,2.4-.7,3,3,0,0,0,.9-2.4v-5.4a2.58,2.58,0,0,0-.9-2.1,3.51,3.51,0,0,0-2.3-.7H95Z" transform="translate(-8 -9.7)"/><path class="cls-6" d="M114.8,104.3a3.47,3.47,0,0,1,1.3,2.9v7.4a3.8,3.8,0,0,1-1.3,3,5.22,5.22,0,0,1-3.5,1,5.4,5.4,0,0,1-3.5-1,3.54,3.54,0,0,1-1.3-3v-7.4a3.8,3.8,0,0,1,1.3-3,5.22,5.22,0,0,1,3.5-1A5.42,5.42,0,0,1,114.8,104.3ZM109,114.8a2,2,0,0,0,.5,1.4,3.49,3.49,0,0,0,3.6,0,1.62,1.62,0,0,0,.5-1.4V107a2,2,0,0,0-.5-1.4,3,3,0,0,0-1.8-.5,2.86,2.86,0,0,0-1.7.5,1.68,1.68,0,0,0-.6,1.4Z" transform="translate(-8 -9.7)"/><path class="cls-6" d="M135,114.6a1.25,1.25,0,0,0,.4,1.1,2,2,0,0,0,1.4.4,1.59,1.59,0,0,0,1.2-.4,1.66,1.66,0,0,0,.5-1.2V103.1h2.4v11.4a3.39,3.39,0,0,1-1.1,2.7,4.59,4.59,0,0,1-3.1.9,4.1,4.1,0,0,1-2.9-1,3.13,3.13,0,0,1-1.3-2.5V103.1h2.4v11.5Z" transform="translate(-8 -9.7)"/><path class="cls-6" d="M153.2,112.7v-9.5h2.4V118h-2.4l-4-9v9h-2.4V103.1h2.4Z" transform="translate(-8 -9.7)"/><path class="cls-6" d="M164.2,118h-2.4V103.1h2.4Z" transform="translate(-8 -9.7)"/><path class="cls-6" d="M174.3,113.3l2.2-10.1h2.6l-3.6,14.9h-2.4l-3.6-14.9h2.6Z" transform="translate(-8 -9.7)"/><path class="cls-6" d="M191.8,105.1h-5.4v4.4h4.8v1.9h-4.8v4.7H192V118h-8V103.1h7.8v2Z" transform="translate(-8 -9.7)"/><path class="cls-6" d="M205,104.1a4,4,0,0,1,1.1,3.1q0,2.25-.9,3a8,8,0,0,1-1.4.9l3.3,7h-2.7l-3-6.7h-1.6v6.7h-2.4V103.2h5.1A3.84,3.84,0,0,1,205,104.1Zm-5.1,5.3h1.7a2.41,2.41,0,0,0,1.5-.4,2.46,2.46,0,0,0,.5-1.7,2.57,2.57,0,0,0-.5-1.8,2.12,2.12,0,0,0-1.4-.4h-1.8Z" transform="translate(-8 -9.7)"/><path class="cls-6" d="M218.8,104.2a3.54,3.54,0,0,1,1.4,2.9l-2.4.3a2.09,2.09,0,0,0-2.2-2.4,2.12,2.12,0,0,0-1.4.4,1.61,1.61,0,0,0-.6,1.3,2.43,2.43,0,0,0,1.1,2,13.84,13.84,0,0,0,3.2,1.7,4,4,0,0,1,2.7,3.8,3.29,3.29,0,0,1-1.3,2.8,5.24,5.24,0,0,1-3.3,1.1,5.72,5.72,0,0,1-3.6-1.1,3.9,3.9,0,0,1-1.3-3.3l2.4-.3a2.54,2.54,0,0,0,.7,2.1,2.45,2.45,0,0,0,1.6.6,3,3,0,0,0,1.8-.5,1.75,1.75,0,0,0,.6-1.5c0-1.1-.8-1.9-2.3-2.6a19,19,0,0,1-3.6-2.1,3.3,3.3,0,0,1-1.1-2.8,3.42,3.42,0,0,1,1.2-2.7,4.62,4.62,0,0,1,3.1-1A7.14,7.14,0,0,1,218.8,104.2Z" transform="translate(-8 -9.7)"/><path class="cls-6" d="M227.7,118h-2.4V103.1h2.4Z" transform="translate(-8 -9.7)"/><path class="cls-6" d="M241.1,105.1h-3v13h-2.4v-13h-3v-1.9h8.4Z" transform="translate(-8 -9.7)"/><path class="cls-6" d="M250.5,108.6l2.5-5.2h2.4l-3.7,7.8v7.1h-2.4v-7.1l-3.7-7.8H248Z" transform="translate(-8 -9.7)"/></svg>